<svg height="50" viewBox="0 -152 496 495" width="50" xmlns="http://www.w3.org/2000/svg"><path d="m248 7.921875c-97.203125 0-176 78.800781-176 176h352c0-97.199219-78.796875-176-176-176zm0 0" fill="#231f20"/><path d="m488 175.921875h-56.199219c-4.582031-98.175781-85.515625-175.421875-183.800781-175.421875s-179.21875 77.246094-183.800781 175.421875h-56.199219c-4.417969 0-8 3.582031-8 8s3.582031 8 8 8h480c4.417969 0 8-3.582031 8-8s-3.582031-8-8-8zm0 0" fill="#231f20"/><path d="m248 11.921875c-92.785156 0-168 75.21875-168 168h336c0-92.78125-75.214844-168-168-168zm0 0" fill="#ff9811"/></svg>