<svg id="Layer_1" enable-background="new 0 0 512 512" height="50" viewBox="0 0 512 512" width="50" xmlns="http://www.w3.org/2000/svg"><g><path d="m174.614 175.68c0-8.284-6.716-15-15-15s-15 6.716-15 15v321.32c0 8.284 6.716 15 15 15s15-6.716 15-15z" fill="#280000"/><path d="m159.614 399.538c-88.012 0-159.614-71.602-159.614-159.614 0-88.023 71.602-159.634 159.614-159.634 88.022 0 159.634 71.611 159.634 159.634 0 88.012-71.612 159.614-159.634 159.614z" fill="#ffd400"/><path d="m159.614 399.538v-319.248c88.022 0 159.634 71.611 159.634 159.634 0 88.012-71.612 159.614-159.634 159.614z" fill="#ff9f12"/><path d="m497 287.096h-41.309c-38.066 0-70.087-30.772-70.087-70.086v-41.31c0-8.284 6.716-15 15-15h41.33c37.997 0 70.066 30.71 70.066 70.086v41.31c0 8.284-6.716 15-15 15z" fill="#fe3246"/><path d="m370.781 110.33h-34.441c-8.284 0-15-6.716-15-15v-34.421c0-33.555 27.308-60.909 60.909-60.909h34.421c8.284 0 15 6.716 15 15v34.421c0 33.79-27.326 60.909-60.889 60.909z" fill="#fff08c"/><path d="m497 512h-482c-8.284 0-15-6.716-15-15s6.716-15 15-15h482c8.284 0 15 6.716 15 15s-6.716 15-15 15z" fill="#ff9f12"/><path d="m213.272 229.338-38.658 38.657v-92.315c0-8.284-6.716-15-15-15s-15 6.716-15 15v92.315l-38.657-38.657c-5.857-5.858-15.355-5.858-21.213 0s-5.858 15.355 0 21.213l59.87 59.87v88.407c4.94.463 9.941.71 15 .71s10.06-.247 15-.71v-88.407l59.871-59.87c5.858-5.857 5.858-15.355 0-21.213s-15.356-5.858-21.213 0z" fill="#a50000"/><path d="m336.34 110.33h34.441c33.562 0 60.889-27.119 60.889-60.909v-34.421c0-4.142-1.679-7.892-4.393-10.606l-101.543 101.543c2.714 2.714 6.464 4.393 10.606 4.393z" fill="#ffd400"/><path d="m386.847 337.486h-34.441c-8.284 0-15 6.716-15 15v34.421c0 33.555 27.308 60.909 60.908 60.909h34.421c8.284 0 15-6.716 15-15v-34.421c.001-33.79-27.325-60.909-60.888-60.909z" fill="#ff9f12"/><path d="m352.406 337.486h34.441c33.562 0 60.889 27.119 60.889 60.909v34.421c0 4.142-1.679 7.892-4.393 10.606l-101.543-101.542c2.714-2.715 6.464-4.394 10.606-4.394z" fill="#ff6a23"/><path d="m441.934 160.7h-41.33c-4.142 0-7.892 1.679-10.607 4.393l117.609 117.609c2.714-2.714 4.393-6.464 4.393-10.607v-41.31c.001-39.375-32.068-70.085-70.065-70.085z" fill="#d70f00"/><path d="m174.614 398.828v-88.407l59.871-59.87c5.858-5.857 5.858-15.355 0-21.213-5.857-5.858-15.355-5.858-21.213 0l-38.658 38.657v-92.315c0-8.284-6.716-15-15-15v238.858c5.059 0 10.06-.247 15-.71z" fill="#5a0000"/><path d="m497 482h-337.386v30h337.386c8.284 0 15-6.716 15-15s-6.716-15-15-15z" fill="#ff6a23"/></g></svg>