<svg id="Layer_2" height="50" viewBox="0 0 512 512" width="50" xmlns="http://www.w3.org/2000/svg" data-name="Layer 2"><path d="m80 48h-56a16 16 0 0 0 -16 16v424a16 16 0 0 0 16 16h416a16 16 0 0 0 16-16v-24z" fill="#443c3c"/><path d="m104 464a56 56 0 0 1 -56-56v-344a16 16 0 0 1 16-16h376a16 16 0 0 1 16 16v344c0 30.928 17.072 56 48 56z" fill="#fff"/><path d="m456 64a16 16 0 0 0 -16-16h-376a16 16 0 0 0 -16 16v88h408z" fill="#f75252"/><g opacity=".2"><path d="m456 72.4v-8.4a16 16 0 0 0 -16-16h-376a16 16 0 0 0 -16 16v258.377c148.36-220.697 364.051-246.9 408-249.977z" fill="#fff"/></g><circle cx="148" cy="100" fill="#fff" r="28"/><circle cx="380" cy="100" fill="#fff" r="28"/><path d="m160 104h-16v-80a8.009 8.009 0 0 0 -8-8h-32a8.009 8.009 0 0 0 -8 8v24h-16v-24a24.027 24.027 0 0 1 24-24h32a24.027 24.027 0 0 1 24 24z" fill="#494040"/><path d="m392 104h-16v-80a8.009 8.009 0 0 0 -8-8h-32a8.009 8.009 0 0 0 -8 8v24h-16v-24a24.027 24.027 0 0 1 24-24h32a24.027 24.027 0 0 1 24 24z" fill="#494040"/><path d="m272 440h-16v-16c0-51.337-13.28-85.126-24.42-104.431-11.621-20.138-23.394-29.138-24.269-29.79l-8.121-5.479 8.952-13.261 8.238 5.562c.046.031.092.063.137.095 2.267 1.596 55.483 40.388 55.483 147.304z" fill="#87b250"/><path d="m248.2 440h-16v-16c0-106.916 53.216-145.708 55.482-147.308q.258-.182.529-.343l9.368-5.562 8.168 13.758-9.021 5.356c-1.566 1.2-12.906 10.261-24.105 29.668-11.14 19.3-24.42 53.093-24.42 104.431z" fill="#658e35"/><path d="m136 368h16v16h-16z" fill="#17c4e0"/><path d="m368 376h16v16h-16z" fill="#ea6e6e"/><path d="m96 328h16v16h-16z" fill="#ea6e6e"/><path d="m392 328h16v16h-16z" fill="#f9b00d"/><path d="m240 400v-26a30 30 0 0 0 -30-30h-18v26a30 30 0 0 0 30 30z" fill="#94db49"/><path d="m264 424v-26a30 30 0 0 1 30-30h18v26a30 30 0 0 1 -30 30z" fill="#94db49"/><path d="m182.548 201.331 9.24-6.764a13.119 13.119 0 0 1 20.791 12l-1.238 11.384a13.119 13.119 0 0 0 7.749 13.422l10.478 4.627a13.119 13.119 0 0 1 0 24.008l-10.478 4.62a13.119 13.119 0 0 0 -7.749 13.422l1.238 11.384a13.119 13.119 0 0 1 -20.791 12l-9.24-6.764a13.119 13.119 0 0 0 -15.5 0l-9.24 6.764a13.119 13.119 0 0 1 -20.791-12l1.238-11.384a13.119 13.119 0 0 0 -7.749-13.422l-10.476-4.628a13.119 13.119 0 0 1 0-24.008l10.478-4.62a13.119 13.119 0 0 0 7.749-13.422l-1.238-11.384a13.119 13.119 0 0 1 20.791-12l9.24 6.764a13.119 13.119 0 0 0 15.498.001z" fill="#f9b00d"/><path d="m168 240h16v16h-16z" fill="#fff"/><path d="m321.656 201.331-9.24-6.764a13.119 13.119 0 0 0 -20.791 12l1.238 11.384a13.119 13.119 0 0 1 -7.749 13.422l-10.478 4.627a13.119 13.119 0 0 0 0 24.008l10.478 4.62a13.119 13.119 0 0 1 7.749 13.422l-1.238 11.384a13.119 13.119 0 0 0 20.791 12l9.24-6.764a13.119 13.119 0 0 1 15.5 0l9.24 6.764a13.119 13.119 0 0 0 20.791-12l-1.238-11.384a13.119 13.119 0 0 1 7.749-13.422l10.476-4.628a13.119 13.119 0 0 0 0-24.008l-10.478-4.62a13.119 13.119 0 0 1 -7.749-13.422l1.238-11.384a13.119 13.119 0 0 0 -20.791-12l-9.24 6.764a13.119 13.119 0 0 1 -15.498.001z" fill="#17c4e0"/><path d="m320.204 240h16v16h-16z" fill="#fff"/></svg>