<svg id="Capa_1" enable-background="new 0 0 512 512" height="50" viewBox="0 0 512 512" width="50" xmlns="http://www.w3.org/2000/svg"><g><path d="m205.635 4.953c16.265-3.245 33.085-4.949 50.303-4.953 140.095-.033 254.874 113.705 256.053 253.795.516 61.337-20.54 117.741-56.04 162.081-15.256 19.055-38.37 30.113-62.78 30.113h-292.965c-10.487 0-20.59-4.156-27.896-11.68-23.865-24.58-42.839-53.935-55.352-86.494-.164-.427-.211-.889-.139-1.341 2.093-13.183 86.013-321.011 188.816-341.521z" fill="#40c1fa"/><path d="m332.209 167.119c0 92.298-74.822 167.119-167.119 167.119-76.99.001-161.105-123.476-161.073-123.655 18.499-103.325 98.992-185.155 201.618-205.63 72.705 18.119 126.574 83.852 126.574 162.166z" fill="#72d1fb"/><path d="m219.736 429.794c.464 10.374-7.316 19.137-17.436 20.115l2.829 13.967c2.195 10.836-5.124 21.305-16.056 22.964s-21.027-6.167-22.145-17.167l-6.751-66.417c-1.399-13.766-.484-27.669 2.708-41.133l3.285-13.856c.415-1.751 2.752-2.106 3.668-.557l7.247 12.258c2.362 3.995 4.493 8.112 6.387 12.333l.984-22.015c.571-12.765 3.094-25.366 7.482-37.367l6.501-17.781c.64-1.751 3.117-1.751 3.757 0l6.501 17.781c4.388 12 6.911 24.602 7.482 37.367zm244.278-125.987-7.88 7.639c-12.96 12.565-23.919 27.041-32.495 42.925l-33.986 62.948c-5.26 9.743-1.328 21.906 8.64 26.725 9.968 4.82 21.943.348 26.313-9.825l28.232-65.73c7.124-16.586 11.664-34.166 13.464-52.127l1.094-10.92c.186-1.854-2.044-2.932-3.382-1.635zm-150.479 12.801c-.4-1.821-2.854-2.153-3.723-.503l-5.116 9.71c-8.414 15.97-14.332 33.135-17.547 50.898l-12.742 70.393c-1.972 10.895 5.545 21.234 16.517 22.717 10.973 1.484 20.965-6.488 21.957-17.516l6.409-71.249c1.617-17.979.47-36.099-3.401-53.73z" fill="#07a9f0"/><path d="m448.118 309.547-6.668 33.83c-3.901 19.79-9.198 39.279-15.854 58.32l-18.771 53.702-25.92-4.63-40.377-2.008.11 1.24h-40.638l5.32-59.826 15-50.174 15 50.174 5.089 57.227 18.778-275.547c.566-8.312 1.675-16.578 3.319-24.746l14.851-73.796c.453-2.251 3.723-2.089 3.951.197l7.454 74.905c.825 8.29 1.108 16.626.847 24.953l-7.546 240.548 12.462-25.256c8.925-18.088 19.121-35.522 30.511-52.169l19.47-28.458c1.227-1.797 4.033-.619 3.612 1.514zm-286.688 67.405-9.194-30.842c-.568-1.905-3.265-1.905-3.833 0l-9.194 30.842c-2.587 8.677-4.293 17.592-5.092 26.611l-4.117 46.437h40.64l-4.117-46.438c-.8-9.018-2.506-17.934-5.093-26.61zm-57.761-4.182-13.349-52.77-13.349 52.77c-1.099 4.343-1.82 8.773-2.156 13.24l-3.552 47.214c2.513 2.619 5.081 5.185 7.703 7.695 6.07 5.813 14.136 9.082 22.54 9.082h9.135l-4.815-63.99c-.337-4.469-1.059-8.898-2.157-13.241zm208.671-255.555-3.922-81.714c-.112-2.326-3.435-2.616-3.948-.345l-18.05 79.792c-2.17 9.591-3.769 19.303-4.788 29.084l-31.632 303.379 40.485 3.541 21.521-304.264c.694-9.809.806-19.65.334-29.473z" fill="#6dc54a"/><path d="m230.063 73.668-3.83 23.815c-1.718 10.684 5.373 20.797 16.003 22.822l23.695 4.514c3.949.752 5.44 5.62 2.591 8.456l-17.097 17.016c-7.67 7.634-7.877 19.983-.468 27.87l16.516 17.58c2.752 2.93 1.098 7.745-2.874 8.364l-23.833 3.717c-10.692 1.667-18.119 11.537-16.76 22.273l3.029 23.93c.505 3.988-3.664 6.911-7.241 5.077l-21.464-11.002c-9.63-4.936-21.44-1.316-26.651 8.168l-11.615 21.14c-1.936 3.523-7.026 3.437-8.843-.148l-10.9-21.518c-4.89-9.654-16.571-13.667-26.362-9.057l-21.821 10.275c-3.637 1.712-7.705-1.349-7.067-5.318l3.83-23.815c1.718-10.684-5.373-20.797-16.003-22.822l-23.695-4.514c-3.949-.752-5.44-5.62-2.591-8.456l17.097-17.016c7.67-7.634 7.877-19.983.468-27.87l-16.516-17.58c-2.752-2.929-1.098-7.745 2.874-8.364l23.833-3.717c10.692-1.667 18.119-11.537 16.76-22.273l-3.029-23.93c-.505-3.988 3.664-6.911 7.241-5.077l21.466 11.002c9.63 4.936 21.44 1.316 26.651-8.168l11.615-21.14c1.936-3.523 7.026-3.437 8.843.148l10.9 21.518c4.89 9.654 16.571 13.667 26.362 9.057l21.823-10.276c3.633-1.711 7.701 1.35 7.063 5.319z" fill="#fcf2b6"/><path d="m217.923 162.655c0 33.334-27.022 60.356-60.356 60.356s-60.356-27.022-60.356-60.356 27.022-60.356 60.356-60.356 60.356 27.022 60.356 60.356z" fill="#ffc14f"/><path d="m210.218 192.186c-10.502 18.685-30.663 31.213-53.713 30.817-32.346-.556-58.729-26.939-59.284-59.285-.396-23.05 12.132-43.21 30.817-53.713-4.974 8.85-7.782 19.08-7.704 29.973.235 32.822 27.091 59.677 59.912 59.912 10.892.078 21.122-2.73 29.972-7.704z" fill="#ffa90b"/><path d="m507.492 283.419-183.302 18.339c-21.982 2.199-41.584-13.838-43.783-35.819l-9.955-99.503 223.103-22.321c3.623-.362 6.406 3.145 5.229 6.591l-22.357 65.472 34.885 59.745c1.836 3.144-.197 7.133-3.82 7.496z" fill="#d63030"/><path d="m414.229 254.451c-1.123 13.012-9.973 18.143-21.575 20.602-24.105 5.109-47.137 14.375-68.556 26.558-19.747 1.976-37.537-10.631-42.552-29.178 21.804-6.089 43.722-12.608 66.341-15.059 20.667-2.239 40.476-8.582 52.946-8.708 8.415-.084 13.396 5.785 13.396 5.785z" fill="#c42d2d"/><path d="m390.215 151.917 24.014 102.534c-4.062-5.284-14.538-6.242-20.396-5.284 0 0-35.333 4.167-82.245 16.238-35.99 9.261-71.813 19.439-104.717 37.017-46.425 24.802-97.613 39.398-150.136 42.813l-39.776 2.585c-2.301-5.985-4.383-12.079-6.237-18.271l-7.052-30.114c-2.413-14.118-3.67-28.63-3.67-43.435 0-15.499 1.377-30.677 4.017-45.417l11.167-.561c52.453-2.636 103.742-16.424 150.446-40.444l11.442-5.885c42.504-21.86 88.845-35.266 136.455-39.474l34.219-3.025c19.83-1.753 37.93 11.342 42.469 30.723z" fill="#fb5858"/><path d="m200.95 256.868c1.258 2.458.285 5.47-2.174 6.729-2.458 1.257-5.47.285-6.729-2.174l-16.18-31.626.232 36.309c.001.061-.001.122-.002.184-.081 2.668-1.854 4.972-4.414 5.733-.009.003-.02.006-.029.008-2.551.745-5.279-.217-6.799-2.399-.035-.051-.071-.103-.104-.155l-19.689-30.652 3.726 35.175c.291 2.746-1.713 5.21-4.446 5.499-2.746.291-5.208-1.699-5.5-4.445l-5.426-51.234c-.268-2.849 1.387-5.472 4.02-6.437 2.653-.973 5.591-.029 7.192 2.271.035.051.069.102.103.154l21.282 33.134-.251-39.22c0-.06 0-.121.002-.181.083-2.802 2.062-5.193 4.78-5.833 2.731-.633 5.55.658 6.857 3.138zm-142.617 11.465c-7.061-.49-13.726-1.329-15.484-1.558-1.792-.666-3.013-2.196-3.292-4.155-.357-2.51.942-4.993 3.477-6.642 7.14-4.647 15.904-1.04 16.096-.96 2.523 1.097 5.459-.053 6.567-2.57 1.114-2.527-.033-5.478-2.56-6.591-.557-.245-13.779-5.924-25.556 1.738-5.795 3.769-8.831 10.067-7.924 16.435.846 5.939 4.916 10.7 10.621 12.425.252.076.51.133.771.168.325.044 8.054 1.092 16.59 1.684 5.931.412 9.552 2.684 9.934 6.234.383 3.556-2.559 8.209-8.148 9.841-5.37 1.568-11.187.901-15.561-1.785-2.352-1.445-5.432-.709-6.877 1.645-1.444 2.354-.708 5.432 1.646 6.877 6.741 4.138 15.561 5.208 23.596 2.862 9.672-2.824 16.244-11.643 15.288-20.513-.725-6.723-6.145-14.231-19.184-15.135zm59.147-39.93c-.774-2.651-3.55-4.172-6.201-3.398s-4.172 3.55-3.398 6.201l10.031 34.354c.756 2.591 1.162 6.593-4.02 11.427-1.546 1.442-3.454 2.502-5.668 3.148-.007.002-.014.004-.021.006-2.491.724-4.84.742-7.183.058-4.741-1.387-7.124-3.491-8.227-7.266l-10.041-34.39c-.774-2.651-3.55-4.172-6.201-3.398s-4.172 3.55-3.398 6.201l10.041 34.39c2.077 7.114 6.99 11.714 15.02 14.061 4.166 1.218 8.466 1.2 12.779-.052.011-.003.022-.007.034-.01 3.728-1.089 6.987-2.917 9.686-5.435 8.502-7.93 8.389-16.092 6.798-21.543zm244.899-13.358c-.678 1.069-1.694 1.793-2.82 2.122-1.331.389-2.817.225-4.08-.576l-24.796-15.718 5.251 17.984c.774 2.651-.747 5.427-3.398 6.201s-5.427-.748-6.201-3.398l-14.593-49.978c-.774-2.651.747-5.427 3.398-6.201.003-.001.007-.002.01-.003.002-.001.005-.002.007-.002l13.28-3.878c10.214-2.982 20.853 2.571 23.717 12.38 2.576 8.824-2.005 18.132-10.388 22.083l19.065 12.085c2.334 1.478 3.025 4.567 1.548 6.899zm-19.823-38.264c-1.296-4.439-6.478-6.996-11.315-5.584l-8.466 2.472c.887 3.006 1.946 6.598 2.409 8.184.549 1.881 1.575 5.336 2.431 8.211 2.927-.871 6.469-1.922 8.408-2.489 4.836-1.412 7.829-6.356 6.533-10.794zm-34.778 45.088-16.066 4.691-4.427-15.162 14.528-4.242c2.651-.774 4.172-3.55 3.398-6.201s-3.55-4.172-6.201-3.398l-14.528 4.242-4.427-15.162 16.066-4.691c2.651-.774 4.172-3.55 3.398-6.201s-3.55-4.172-6.201-3.398l-20.866 6.093c-2.651.774-4.172 3.55-3.398 6.201l14.46 49.522c.774 2.651 3.55 4.172 6.201 3.398l20.866-6.093c2.651-.774 4.172-3.55 3.398-6.201-.774-2.65-3.55-4.172-6.201-3.398zm-58.611-31.975c-1.307-2.48-4.127-3.77-6.857-3.138-2.726.642-4.696 3.031-4.779 5.833-.002.06-.003.12-.002.181l.25 39.218-21.282-33.132c-.033-.052-.068-.103-.103-.154-1.602-2.301-4.549-3.241-7.193-2.271-2.633.964-4.288 3.587-4.02 6.437l5.426 51.234c.291 2.746 2.753 4.736 5.5 4.445 2.737-.289 4.736-2.753 4.446-5.499l-3.726-35.175 19.689 30.652c.034.052.069.104.104.155 1.52 2.182 4.249 3.144 6.798 2.399.011-.003.022-.006.033-.01 2.559-.762 4.331-3.067 4.41-5.736.002-.06.003-.12.002-.18l-.232-36.308 16.181 31.624c1.257 2.459 4.276 3.429 6.729 2.174 2.459-1.258 3.432-4.27 2.174-6.729z" fill="#fff5f5"/><path d="m444.307 384.293 17.815-19.357c1.346-1.463 3.77-.279 3.445 1.682l-7.501 45.18-1.049 2.738c-12.512 15.843-26.856 30.171-42.714 42.664l-14.303-6.983 21.041-34.89c6.694-11.1 14.488-21.496 23.266-31.034zm-25.676-119.719-25.476 57.291c-5.7 12.818-10.694 25.938-14.961 39.302l-28.194 88.296 39.25 10.537 19.82-90.544c3-13.704 5.248-27.561 6.734-41.51l6.643-62.347c.241-2.268-2.89-3.109-3.816-1.025zm-165.714 136.909-4.3 14.434-6.397-35.698c-1.603-8.946-3.878-17.758-6.806-26.362l-15.229-44.749c-.691-2.031-3.661-1.696-3.883.438l-4.889 47.016c-.94 9.039-1.197 18.137-.769 27.215l3.206 68.027 38.851-4.378 27.123 5.522 5.064-44.956c1.103-9.794 1.215-19.675.332-29.492l-2.762-30.732c-.178-1.978-2.818-2.516-3.755-.765l-14.559 27.206c-4.652 8.691-8.413 17.828-11.227 27.274z" fill="#54a770"/><path d="m433.989 440c-46.068 44.572-108.825 72-177.989 72s-131.921-27.428-177.989-72h4.345c3.074 0 4.999-3.324 3.469-5.991l-7.476-13.031c-1.231-2.145-2.242-4.408-3.019-6.755l-13.222-39.949c-.625-1.887 1.588-3.431 3.143-2.194l32.937 26.189c1.936 1.539 3.712 3.269 5.3 5.164.792-8.933 2.482-17.764 5.044-26.358l9.231-30.965c.568-1.905 3.265-1.905 3.833 0l9.231 30.965c2.562 8.595 4.252 17.426 5.044 26.359l2.919 32.919c.183 2.064 1.912 3.647 3.984 3.647h39.992c2.76 0 4.693-2.721 3.774-5.324-2.866-8.116-8.146-23.63-10.07-33.012l-5.146-25.092c-.399-1.947 1.978-3.222 3.379-1.811l18.045 18.178c9.456 9.526 17.928 19.98 25.289 31.204l9.214 14.05c.739 1.127 1.997 1.806 3.345 1.806h88.504c2.283 0 4.103-1.908 3.996-4.188l-1.58-33.526c-1.008-21.4-.402-42.846 1.814-64.155l2.973-28.586c.222-2.134 3.191-2.468 3.883-.438l9.259 27.207c6.902 20.282 12.266 41.055 16.045 62.143l6.854 38.248c.342 1.907 2 3.294 3.937 3.294h67.708z" fill="#489160"/></g></svg>